<svg width="168" height="182" viewBox="0 0 168 182" fill="none" xmlns="http://www.w3.org/2000/svg">
<rect y="0.336548" width="167.632" height="181.242" rx="5.31111" fill="#DFFFD0"/>
<path fill-rule="evenodd" clip-rule="evenodd" d="M148.375 106.488C148.36 102.277 144.947 98.8674 140.74 98.8674C144.957 98.8674 148.375 95.4428 148.375 91.2185C148.39 95.4299 151.803 98.8391 156.01 98.8391C151.793 98.8391 148.375 102.264 148.375 106.488Z" fill="#4F4F4F"/>
<path fill-rule="evenodd" clip-rule="evenodd" d="M24.7653 29.8171C24.7533 26.5212 22.0828 23.8531 18.7903 23.8531C22.0902 23.8531 24.7653 21.173 24.7653 17.8671C24.7772 21.1629 27.4477 23.831 30.7403 23.831C27.4403 23.831 24.7653 26.5111 24.7653 29.8171Z" fill="#4F4F4F"/>
<path fill-rule="evenodd" clip-rule="evenodd" d="M8.26528 167.977C8.25333 164.681 5.58284 162.013 2.29028 162.013C5.59018 162.013 8.26528 159.333 8.26528 156.027C8.27718 159.323 10.9477 161.991 14.2403 161.991C10.9403 161.991 8.26528 164.671 8.26528 167.977Z" fill="#4F4F4F"/>
</svg>
